<svg aria-hidden="true" style="position:absolute;width:0;height:0;overflow:hidden" xmlns="http://www.w3.org/2000/svg"><defs><symbol id="icon-Vector-1-1" viewBox="0 0 22 32"><path  stroke="#d41443" style="stroke:var(--color1, #d41443)" stroke-linejoin="round" stroke-linecap="round" stroke-width="6.4" d="M3.334 3.2 18.307 16 3.331 28.8"/></symbol><symbol id="icon-Vector-1-2" viewBox="0 0 22 32">
<path fill="none" stroke="#d41443" style="stroke: var(--color1, #d41443)" stroke-linejoin="round" stroke-linecap="round" stroke-miterlimit="4" stroke-width="6.4" d="M5.575 3.2l12.88 12.8-12.88 12.8"></path>
</symbol><symbol id="icon-close-1" viewBox="0 0 32 32"><path  stroke="#fff" style="stroke:var(--color2, #fff)" stroke-width="2" d="m2.521 2.001 26.967 28.007m-27.487-.521L30.008 2.52"/></symbol><symbol id="icon-Burger-1" viewBox="0 0 46 32"><path  stroke="#d41443" style="stroke:var(--color1, #d41443)" stroke-width="2.286" d="M0 2.304h45.714M0 16.018h45.714M0 29.732h45.714"/></symbol><symbol id="icon-arrow-right2" viewBox="0 0 32 32"><path d="m19.414 27.414 10-10a2 2 0 0 0 0-2.828l-10-10a2 2 0 1 0-2.828 2.828L23.172 14H4a2 2 0 1 0 0 4h19.172l-6.586 6.586c-.39.39-.586.902-.586 1.414s.195 1.024.586 1.414a2 2 0 0 0 2.828 0z"/></symbol></defs></svg>